<svg xmlns="http://www.w3.org/2000/svg" width="105" height="147" viewBox="0 0 105 147">
    <g fill="none" fill-rule="evenodd">
        <path fill="#E7482A" d="M0 0v147h105V0z"/>
        <path fill="#FFF" d="M86.682 71.853a.245.245 0 0 1-.068.164l-18.05 15.866a.251.251 0 0 1-.296.027L54.053 76.126l.004-.001-19.342-16.137c-.119 5.477 2.762 10.059 6.905 13.624l6.093 5.077-11.133 9.175c-.093.057-.214.046-.311-.04L18.296 71.932a.254.254 0 0 1-.084-.178l.005-12.244.028-11.185a.241.241 0 0 1 .068-.163l18.05-15.867a.25.25 0 0 1 .296-.026l18.152 15.048 15.422 12.866c.119-5.477-2.762-10.058-6.905-13.624l-6.097-5.08-.007.002 11.123-9.167c.093-.056.214-.045.311.042l17.974 15.89c.05.046.08.11.083.178l-.003 10.912-.03 12.516zm6.03-12.363l.008-3.72-.003-7.367v-.032a6.311 6.311 0 0 0-2.103-4.632L72.64 27.85a6.246 6.246 0 0 0-7.935-.325l-12.21 10.061-12.086-10.021-.094-.075c-2.371-1.81-5.709-1.684-7.92.288l-18.05 15.867a6.299 6.299 0 0 0-2.101 4.612l-.019 7.483h-.007l-.002 3.667-.007 3.608.001 8.763v.032a6.31 6.31 0 0 0 2.103 4.631l17.974 15.89a6.246 6.246 0 0 0 7.935.325l12.21-10.06 12.087 10.02.093.075a6.229 6.229 0 0 0 3.78 1.279 6.201 6.201 0 0 0 4.14-1.566l18.051-15.867a6.302 6.302 0 0 0 2.1-4.612l.021-8.795h.007l.002-3.639zM54.696 116.695v-5.94c1.5-.143 2.629.982 2.693 2.647.08 2.09-.913 3.34-2.693 3.293m-9.395-3.866c-.552.922-1.498.95-2.511 1.02v-3.133c.87-.025 1.761-.219 2.417.577.385.467.395 1.033.094 1.536m-13.848 3.647c-1.484-.008-2.54-1.154-2.542-2.758-.001-1.608 1.05-2.753 2.533-2.762 1.492-.01 2.559 1.112 2.584 2.717.026 1.62-1.069 2.81-2.575 2.803m61.124-1.442c-.384-1.507-1.486-2.25-2.828-2.742-.755-.276-1.543-.47-2.271-.8-.245-.11-.488-.533-.474-.799.024-.273.19-.534.57-.558.143-.01.497.052.647.107.647.239 1.293.496 2.013.777l1.632-2.793c-1.449-.992-2.86-1.467-4.96-1.285-1.173.1-2.199.54-3.013 1.42-.536.577-.885 1.42-.97 2.313-.002-1.044-.007-2.088-.003-3.132 0-.113.063-.226.036-.349H78.44v.801c0 2.26.01 4.521-.01 6.781a4.82 4.82 0 0 1-.213 1.397c-.184.578-.64.85-1.261.84-.592-.008-1.03-.27-1.199-.822a4.994 4.994 0 0 1-.19-1.398c-.014-1.695-.013-3.39-.011-5.085.016-.871.046-1.739.046-2.595-2.868 0-10.986.056-13.835.056v5.036c-.465-2.077-1.94-3.763-4.12-4.536-2.432-.864-4.95-.393-7.465-.52V119.7c-.918-1.562-1.71-2.947-2.583-4.425 1.909-1.467 2.536-3.012 1.952-4.998-.575-1.957-2.057-2.907-3.976-3.013-2.387-.132-4.784-.062-7.177-.076-.036 0-.071.054-.119.093v4.686c-.762-2.995-3.467-5.102-6.835-5.083-3.459.02-6.186 2.227-6.864 5.344v-5.032h-4.346v6.08l-.187.07c-.138-.21-.28-.42-.415-.633-1.088-1.701-2.17-3.406-3.269-5.1-.117-.182-.32-.43-.49-.435-1.221-.037-2.444-.02-3.665-.02 0 4.425.051 8.756.051 13.077h4.359v-5.3c1.19 1.6 2.223 3.22 3.267 4.83.121.187.307.466.47.47 1.411.037 2.824.021 4.225.021v-5.013c.68 3.063 3.44 5.287 6.87 5.298 3.372.01 6.068-2.09 6.83-5.08v4.672h4.528v-5.248c.948 1.612 1.678 3.113 2.53 4.73.101.194.278.49.426.495 1.522.036 3.045.022 4.673.022a.072.072 0 0 1-.006-.01c2.002.011 3.966.16 5.893-.042 2.828-.297 4.875-2.299 5.443-4.964v5.066h8.95l-1.065-3.498H66.27v-1.43h3.266v-3.161h-3.267v-1.45h4.777c-.012 1.639-.017 3.277.035 4.913.074 2.368 1.394 4.013 3.533 4.647a8.249 8.249 0 0 0 4.215.135c2.51-.567 3.92-2.14 4.026-4.734.056-1.36.069-2.724.07-4.087.123 1.268.812 2.507 2.286 3.13.827.35 1.706.58 2.513.966.26.124.538.45.495.866-.018.22-.287.433-.574.584-.145.076-.553.05-.722-.011-.812-.288-1.614-.601-2.509-.94l-1.988 2.637c1.935 1.774 5.655 2.315 7.925 1.19 1.85-.919 2.737-2.9 2.226-4.906"/>
    </g>
</svg>
